<svg width="1200" height="680" viewBox="0 0 1200 680" xmlns="http://www.w3.org/2000/svg" font-family="'Courier New', monospace">
  <defs>
    <linearGradient id="bg4" x1="0" y1="0" x2="0" y2="1">
      <stop offset="0%" stop-color="#0d1117"/>
      <stop offset="100%" stop-color="#0a0e14"/>
    </linearGradient>
    <linearGradient id="hdr4" x1="0" y1="0" x2="1" y2="0">
      <stop offset="0%" stop-color="#1a1f2e"/>
      <stop offset="100%" stop-color="#141824"/>
    </linearGradient>
  </defs>

  <rect width="1200" height="680" fill="url(#bg4)"/>
  <pattern id="grid4" width="40" height="40" patternUnits="userSpaceOnUse">
    <path d="M 40 0 L 0 0 0 40" fill="none" stroke="#ffffff" stroke-width="0.12" opacity="0.06"/>
  </pattern>
  <rect width="1200" height="680" fill="url(#grid4)"/>

  <rect x="40" y="20" width="1120" height="640" rx="12" fill="#111418" stroke="#2a2f3e" stroke-width="1.5"/>
  <rect x="40" y="20" width="1120" height="44" rx="12" fill="url(#hdr4)"/>
  <rect x="40" y="52" width="1120" height="12" fill="url(#hdr4)"/>
  <circle cx="72" cy="42" r="7" fill="#ff5f56"/>
  <circle cx="96" cy="42" r="7" fill="#ffbd2e"/>
  <circle cx="120" cy="42" r="7" fill="#27c93f"/>
  <text x="600" y="47" fill="#6b7280" font-size="13" text-anchor="middle">zsh - multi-agent-research-assistant (Interactive Mode)</text>

  <rect x="70" y="80" width="680" height="52" rx="6" fill="#0f1520" stroke="#1e3a5f" stroke-width="1.2"/>
  <text x="88" y="100" fill="#22d3ee" font-size="12" font-weight="bold">Multi-Agent Research Assistant</text>
  <text x="88" y="120" fill="#6b7280" font-size="11">LangGraph  LlamaIndex  Anthropic Claude  |  Type 'exit' to quit</text>

  <text x="70" y="155" fill="#6b7280" font-size="11" font-style="italic">--- Session 1 ---</text>

  <text x="70" y="176" fill="#f59e0b" font-size="12" font-weight="bold">Query:</text>
  <text x="130" y="176" fill="#e2e8f0" font-size="12">How does LangGraph handle state management in multi-agent workflows?</text>

  <text x="70" y="198" fill="#6b7280" font-size="10">[RetrieverAgent] Retrieved 5 chunks  |  [ReasoningAgent] Synthesized  |  [FactCheckAgent] PASS 89%</text>

  <text x="70" y="220" fill="#e2e8f0" font-size="12" font-weight="bold">## LangGraph State Management</text>
  <text x="70" y="238" fill="#94a3b8" font-size="11">LangGraph uses a TypedDict-based state object that flows through the graph. Each node receives</text>
  <text x="70" y="254" fill="#94a3b8" font-size="11">the full state and returns an updated copy. State is immutable between nodes, preventing race conditions.</text>
  <text x="70" y="270" fill="#94a3b8" font-size="11">Checkpointers (SQLite, Redis) enable persistence and resumable workflows.</text>

  <text x="70" y="290" fill="#22c55e" font-size="11">Fact-Check: PASS  |  Confidence: 89%</text>

  <line x1="70" y1="304" x2="1130" y2="304" stroke="#1e293b" stroke-width="1"/>

  <text x="70" y="325" fill="#6b7280" font-size="11" font-style="italic">--- Session 2 ---</text>

  <text x="70" y="346" fill="#f59e0b" font-size="12" font-weight="bold">Query:</text>
  <text x="130" y="346" fill="#e2e8f0" font-size="12">What embedding model does this system use for document retrieval?</text>

  <text x="70" y="368" fill="#6b7280" font-size="10">[RetrieverAgent] Retrieved 4 chunks  |  [ReasoningAgent] Synthesized  |  [FactCheckAgent] PASS 94%</text>

  <text x="70" y="390" fill="#e2e8f0" font-size="12" font-weight="bold">## Embedding Model</text>
  <text x="70" y="408" fill="#94a3b8" font-size="11">The system uses BAAI/bge-small-en-v1.5, a lightweight but high-quality embedding model from</text>
  <text x="70" y="424" fill="#94a3b8" font-size="11">HuggingFace. It is loaded locally via the LlamaIndex HuggingFaceEmbedding adapter, requiring no</text>
  <text x="70" y="440" fill="#94a3b8" font-size="11">external API calls for embedding. The index is cached to .index_cache/ after the first build.</text>

  <text x="70" y="460" fill="#22c55e" font-size="11">Fact-Check: PASS  |  Confidence: 94%</text>

  <line x1="70" y1="474" x2="1130" y2="474" stroke="#1e293b" stroke-width="1"/>

  <text x="70" y="495" fill="#6b7280" font-size="11" font-style="italic">--- Session 3 ---</text>

  <text x="70" y="516" fill="#f59e0b" font-size="12" font-weight="bold">Query:</text>
  <text x="130" y="516" fill="#e2e8f0" font-size="12">Explain the confidence scoring thresholds for fact-checking.</text>

  <text x="70" y="538" fill="#6b7280" font-size="10">[RetrieverAgent] Retrieved 5 chunks  |  [ReasoningAgent] Synthesized  |  [FactCheckAgent] PASS 96%</text>

  <text x="70" y="560" fill="#e2e8f0" font-size="12" font-weight="bold">## Confidence Scoring Thresholds</text>
  <text x="82" y="578" fill="#94a3b8" font-size="11">0.85-1.00  High confidence - Answer is well-grounded, PASS verdict, no flag</text>
  <text x="82" y="594" fill="#94a3b8" font-size="11">0.60-0.84  Moderate confidence - Minor gaps, WARN verdict, no flag</text>
  <text x="82" y="610" fill="#94a3b8" font-size="11">0.00-0.59  Low confidence - Unsupported claims detected, FAIL verdict, FLAGGED</text>

  <text x="70" y="630" fill="#22c55e" font-size="11">Fact-Check: PASS  |  Confidence: 96%</text>

  <text x="70" y="654" fill="#f59e0b" font-size="12" font-weight="bold">Query:</text>
  <text x="130" y="654" fill="#4b5563" font-size="12">_</text>

  <rect x="820" y="80" width="310" height="560" rx="8" fill="#0d1420" stroke="#1e293b" stroke-width="1"/>
  <text x="975" y="105" fill="#6b7280" font-size="11" text-anchor="middle" letter-spacing="2">SESSION STATS</text>

  <text x="975" y="140" fill="#e2e8f0" font-size="28" text-anchor="middle" font-weight="bold">3</text>
  <text x="975" y="158" fill="#6b7280" font-size="10" text-anchor="middle">queries this session</text>

  <line x1="840" y1="172" x2="1110" y2="172" stroke="#1e293b" stroke-width="1"/>

  <text x="855" y="196" fill="#6b7280" font-size="10">Query 1</text>
  <rect x="855" y="204" width="220" height="8" rx="4" fill="#1e293b"/>
  <rect x="855" y="204" width="196" height="8" rx="4" fill="#22c55e"/>
  <text x="1085" y="212" fill="#22c55e" font-size="9" text-anchor="end">89%</text>

  <text x="855" y="230" fill="#6b7280" font-size="10">Query 2</text>
  <rect x="855" y="238" width="220" height="8" rx="4" fill="#1e293b"/>
  <rect x="855" y="238" width="207" height="8" rx="4" fill="#22c55e"/>
  <text x="1085" y="246" fill="#22c55e" font-size="9" text-anchor="end">94%</text>

  <text x="855" y="264" fill="#6b7280" font-size="10">Query 3</text>
  <rect x="855" y="272" width="220" height="8" rx="4" fill="#1e293b"/>
  <rect x="855" y="272" width="211" height="8" rx="4" fill="#22c55e"/>
  <text x="1085" y="280" fill="#22c55e" font-size="9" text-anchor="end">96%</text>

  <line x1="840" y1="300" x2="1110" y2="300" stroke="#1e293b" stroke-width="1"/>

  <text x="975" y="328" fill="#22c55e" font-size="22" text-anchor="middle" font-weight="bold">93%</text>
  <text x="975" y="346" fill="#6b7280" font-size="10" text-anchor="middle">avg. confidence</text>

  <text x="975" y="380" fill="#4ade80" font-size="22" text-anchor="middle" font-weight="bold">3/3</text>
  <text x="975" y="398" fill="#6b7280" font-size="10" text-anchor="middle">queries passed</text>

  <text x="975" y="432" fill="#22d3ee" font-size="22" text-anchor="middle" font-weight="bold">14</text>
  <text x="975" y="450" fill="#6b7280" font-size="10" text-anchor="middle">chunks retrieved total</text>

  <line x1="840" y1="466" x2="1110" y2="466" stroke="#1e293b" stroke-width="1"/>

  <text x="975" y="490" fill="#6b7280" font-size="10" text-anchor="middle">ACTIVE DOCS</text>
  <text x="870" y="512" fill="#94a3b8" font-size="10">ai_overview.md</text>
  <text x="870" y="528" fill="#94a3b8" font-size="10">langgraph_llamaindex.md</text>
  <text x="870" y="544" fill="#94a3b8" font-size="10">hallucination_detection.md</text>

  <rect x="855" y="566" width="220" height="36" rx="6" fill="#0f172a" stroke="#10b981" stroke-width="1"/>
  <text x="965" y="590" fill="#4ade80" font-size="12" text-anchor="middle">Index: LOADED (cached)</text>

  <text x="975" y="628" fill="#6b7280" font-size="9" text-anchor="middle">Embed: BAAI/bge-small-en-v1.5</text>
  <text x="975" y="644" fill="#6b7280" font-size="9" text-anchor="middle">LLM: claude-opus-4-5</text>
</svg>
